<svg xmlns="http://www.w3.org/2000/svg" viewBox="0 0 512 512" fill="#ffffff">
  <!-- Roof -->
  <polygon points="256,32 32,160 480,160" />

  <!-- Columns -->
  <rect x="64" y="160" width="32" height="256" />
  <rect x="128" y="160" width="32" height="256" />
  <rect x="192" y="160" width="32" height="256" />
  <rect x="256" y="160" width="32" height="256" />
  <rect x="320" y="160" width="32" height="256" />
  <rect x="384" y="160" width="32" height="256" />
  <rect x="448" y="160" width="32" height="256" />

  <!-- Base -->
  <rect x="32" y="416" width="448" height="64" />

  <!-- Steps -->
  <rect x="64" y="448" width="384" height="16" fill="#283593" />
  <rect x="96" y="464" width="320" height="16" fill="#283593" />
  <rect x="128" y="480" width="256" height="16" fill="#283593" />

  <!-- Top of columns -->
  <rect x="32" y="128" width="448" height="32" />

  <!-- Door -->
  <rect x="224" y="320" width="64" height="96" fill="#283593" />

  <!-- Windows -->
  <rect x="96" y="224" width="32" height="64" fill="#283593" />
  <rect x="160" y="224" width="32" height="64" fill="#283593" />
  <rect x="224" y="224" width="32" height="64" fill="#283593" />
  <rect x="288" y="224" width="32" height="64" fill="#283593" />
  <rect x="352" y="224" width="32" height="64" fill="#283593" />
  <rect x="416" y="224" width="32" height="64" fill="#283593" />
</svg>
