<svg xmlns="http://www.w3.org/2000/svg" viewBox="0 0 512 512" fill="#ffffff">
  <path d="M442.8 137.6l-68.4-68.4c-6.2-6.2-16.4-6.2-22.6 0l-22.6 22.6c-6.2 6.2-6.2 16.4 0 22.6l68.4 68.4c6.2 6.2 16.4 6.2 22.6 0l22.6-22.6c6.3-6.2 6.3-16.4 0-22.6zM214.9 188.1l-96.8-96.8c-6.2-6.2-16.4-6.2-22.6 0l-22.6 22.6c-6.2 6.2-6.2 16.4 0 22.6l96.8 96.8c6.2 6.2 16.4 6.2 22.6 0l22.6-22.6c6.2-6.3 6.2-16.4 0-22.6zM317.6 395.3l-184.9-184.9c-6.2-6.2-16.4-6.2-22.6 0l-22.6 22.6c-6.2 6.2-6.2 16.4 0 22.6l184.9 184.9c6.2 6.2 16.4 6.2 22.6 0l22.6-22.6c6.3-6.2 6.3-16.4 0-22.6z"/>
  <path d="M393.4 222.6l-96.8-96.8c-6.2-6.2-16.4-6.2-22.6 0L251.4 148.4c-6.2 6.2-6.2 16.4 0 22.6l96.8 96.8c6.2 6.2 16.4 6.2 22.6 0l22.6-22.6c6.2-6.2 6.2-16.4 0-22.6z"/>
  <path d="M106.6 309.4c-6.2-6.2-16.4-6.2-22.6 0l-22.6 22.6c-6.2 6.2-6.2 16.4 0 22.6l96.8 96.8c6.2 6.2 16.4 6.2 22.6 0l22.6-22.6c6.2-6.2 6.2-16.4 0-22.6l-96.8-96.8z"/>
  <rect x="320" y="352" width="128" height="64" rx="16" ry="16"/>
  <rect x="64" y="352" width="128" height="64" rx="16" ry="16"/>
</svg>
