<svg xmlns="http://www.w3.org/2000/svg" viewBox="0 0 512 512" fill="#ffffff">
  <path d="M256 48c-8.8 0-16 7.2-16 16v40H128c-8.8 0-16 7.2-16 16s7.2 16 16 16h112v32H96c-8.8 0-16 7.2-16 16s7.2 16 16 16h144v32H64c-8.8 0-16 7.2-16 16s7.2 16 16 16h176v32H32c-8.8 0-16 7.2-16 16s7.2 16 16 16h208v96c0 8.8 7.2 16 16 16s16-7.2 16-16v-96h208c8.8 0 16-7.2 16-16s-7.2-16-16-16H272v-32h176c8.8 0 16-7.2 16-16s-7.2-16-16-16H272v-32h144c8.8 0 16-7.2 16-16s-7.2-16-16-16H272v-32h112c8.8 0 16-7.2 16-16s-7.2-16-16-16H272V64c0-8.8-7.2-16-16-16z"/>
  <circle cx="128" cy="320" r="64" fill="none" stroke="#ffffff" stroke-width="16"/>
  <circle cx="384" cy="320" r="64" fill="none" stroke="#ffffff" stroke-width="16"/>
  <path d="M128 256c-35.3 0-64 28.7-64 64s28.7 64 64 64 64-28.7 64-64-28.7-64-64-64zm0 96c-17.7 0-32-14.3-32-32s14.3-32 32-32 32 14.3 32 32-14.3 32-32 32zM384 256c-35.3 0-64 28.7-64 64s28.7 64 64 64 64-28.7 64-64-28.7-64-64-64zm0 96c-17.7 0-32-14.3-32-32s14.3-32 32-32 32 14.3 32 32-14.3 32-32 32z" fill="#ffffff"/>
</svg>
